<svg width="140" height="55" viewBox="0 0 140 55" fill="none" xmlns="http://www.w3.org/2000/svg">
<path d="M67.1018 18.9203C68.1819 17.236 69.2309 15.5997 70.2827 13.9663C73.0933 9.60005 79.4014 0 79.4014 0L81.2647 0.0367399C81.2647 0.0367399 72.3327 13.0309 68.247 18.9344L67.1018 18.9231V18.9203Z" fill="#E94E1B"/>
<path d="M83.1931 19.2421C84.2732 17.5578 85.3222 15.9215 86.374 14.288C89.1845 9.92182 95.4926 0.321777 95.4926 0.321777L97.3559 0.358517C97.3559 0.358517 88.4239 13.3526 84.3382 19.2562L83.1931 19.2449V19.2421Z" fill="#E94E1B"/>
<path d="M118.079 14.9216C118.265 14.622 118.48 14.2942 118.703 13.9551L118.652 16.0916C117.677 17.5102 116.778 18.8159 116.04 19.8869L114.895 19.8756C115.972 18.197 117.024 16.5607 118.076 14.9244L118.079 14.9216Z" fill="#E94E1B"/>
<path d="M121.995 11.5502L122.023 10.3718L121.228 10.3548C124.059 6.01121 127.186 1.25781 127.186 1.25781L129.044 1.29455C129.044 1.29455 125.594 6.3249 121.995 11.5474V11.5502Z" fill="#E94E1B"/>
<path d="M16.9649 39.9485C17.0356 40.0446 17.1063 40.1294 17.1882 40.2227L6.16389 40.0022L7.21856 38.2925L16.9027 38.4846L16.7698 39.5133L16.7557 39.6603L16.8376 39.7761C16.8716 39.8298 16.9196 39.892 16.9677 39.9457L16.9649 39.9485Z" fill="#E94E1B"/>
<path d="M24.2711 38.635C24.0279 39.1832 23.7395 39.6665 23.4172 40.0762C23.3437 40.1695 23.2673 40.2514 23.1938 40.3419L17.8018 40.2345C17.7198 40.1384 17.6378 40.0536 17.5558 39.9575C17.4371 39.8304 17.3437 39.7032 17.2504 39.5647L17.3975 38.4937L24.2711 38.6321V38.635Z" fill="#E94E1B"/>
<path d="M28.0967 40.1721C28.1561 40.2681 28.2126 40.3614 28.2833 40.4462L23.7848 40.3557C23.8724 40.2738 23.946 40.1805 24.0082 40.0901C24.3079 39.669 24.585 39.1829 24.8027 38.646L27.3842 38.6969C27.5878 39.2536 27.8309 39.7481 28.0967 40.1721Z" fill="#E94E1B"/>
<path d="M34.4529 40.2992L34.4698 40.5507L34.4444 40.5705L28.8714 40.4603C28.812 40.3755 28.7442 40.2794 28.6735 40.1861C28.3822 39.7735 28.1278 39.279 27.9129 38.7109L34.3397 38.8381L34.45 40.2992H34.4529Z" fill="#E94E1B"/>
<path d="M34.8233 38.8472L36.3303 38.8754L36.2907 40.605L34.9505 40.5795L34.9533 40.5287L34.9335 40.3082L34.8233 38.8472Z" fill="#E94E1B"/>
<path d="M36.8138 38.8862L39.0221 38.9286L38.9796 40.6582L36.7714 40.6158L36.8138 38.8862Z" fill="#E94E1B"/>
<path d="M39.5028 38.9404L41.8185 38.9856L41.7789 40.7152L39.4632 40.67L39.5028 38.9404Z" fill="#E94E1B"/>
<path d="M42.3019 38.9966L44.4961 39.039L44.4565 40.7685L42.2595 40.7261L42.3019 38.9966Z" fill="#E94E1B"/>
<path d="M44.9796 39.0474L47.2953 39.0954L47.2529 40.8249L44.9371 40.7797L44.9796 39.0474Z" fill="#E94E1B"/>
<path d="M47.776 39.104L49.9729 39.1492L49.9305 40.8788L47.7364 40.8335L47.776 39.104Z" fill="#E94E1B"/>
<path d="M50.4536 39.1577L51.8758 39.186L51.8363 40.9155L50.414 40.8872L50.4536 39.1577Z" fill="#E94E1B"/>
<path d="M60.101 39.3494C59.8691 39.9174 59.6062 40.4035 59.3319 40.7935C59.2697 40.8867 59.2075 40.98 59.1453 41.062L55.2264 40.9828C55.167 40.8867 55.1218 40.8048 55.0766 40.7087C54.9041 40.3724 54.7571 39.9937 54.644 39.5755H54.6072L54.5733 40.9715L52.3169 40.9263L52.3565 39.1968L60.0982 39.3522L60.101 39.3494Z" fill="#E94E1B"/>
<path d="M63.8191 40.8845C63.8785 40.9805 63.9351 41.0738 64.0058 41.1586L59.6769 41.071C59.7391 40.989 59.79 40.8958 59.8522 40.8025C60.1264 40.3899 60.3668 39.9066 60.5986 39.3584L63.1066 39.4093C63.3102 39.966 63.5534 40.4606 63.8191 40.8845Z" fill="#E94E1B"/>
<path d="M70.1753 41.0116L70.1922 41.2631C70.1922 41.2631 70.1809 41.2744 70.1668 41.2829L64.5938 41.1726C64.5345 41.0879 64.4666 40.9918 64.3959 40.8985C64.1047 40.4859 63.8502 39.9914 63.6353 39.4233L70.0622 39.5505L70.1725 41.0116H70.1753Z" fill="#E94E1B"/>
<path d="M70.5457 39.5586L72.0527 39.5897L72.0131 41.3192L70.6757 41.291L70.6644 41.2401L70.6446 41.0197L70.5457 39.5586Z" fill="#E94E1B"/>
<path d="M72.5362 39.5986L74.7925 39.6439L74.7501 41.3734L72.4966 41.3282L72.5362 39.5986Z" fill="#E94E1B"/>
<path d="M79.817 41.4748L75.2337 41.3843L75.2733 39.6548L78.9264 39.7283C79.1186 40.285 79.359 40.7796 79.6389 41.2035C79.6983 41.2995 79.7548 41.3928 79.8142 41.4776L79.817 41.4748Z" fill="#E94E1B"/>
<path d="M86.0036 41.5766L85.9781 41.5963L80.4193 41.4861C80.3486 41.4014 80.2779 41.3053 80.21 41.212C79.9301 40.7994 79.6643 40.3048 79.4495 39.7368L85.8905 39.864L85.9894 41.325L86.0064 41.5766H86.0036Z" fill="#E94E1B"/>
<path d="M86.4842 41.6078V41.557L86.4672 41.3366L86.3683 39.8755L89.7217 39.9433C89.8178 40.4661 89.9507 40.9579 90.1345 41.41C90.1684 41.5033 90.2137 41.5994 90.2617 41.6842L86.487 41.6078H86.4842Z" fill="#E94E1B"/>
<path d="M97.5821 41.8279L95.6538 41.7884C95.6198 41.7036 95.5746 41.6103 95.5407 41.5143C95.518 41.4606 95.5067 41.421 95.4841 41.3673C95.4587 41.4182 95.4332 41.4606 95.3965 41.5114C95.3456 41.6047 95.2834 41.6979 95.2325 41.7799L90.7707 41.6895C90.7368 41.6047 90.6915 41.5114 90.6576 41.4153C90.4625 40.983 90.3183 40.4799 90.2222 39.9458L92.224 39.9854C92.4813 40.3867 92.8121 40.6212 93.1995 40.6297H93.2108C93.6095 40.6382 93.9884 40.4064 94.2994 40.0249L96.9177 40.0758C97.1099 40.5591 97.2937 41.0536 97.486 41.5453C97.5199 41.6301 97.5538 41.7234 97.5878 41.8195L97.5821 41.8279Z" fill="#E94E1B"/>
<path d="M104.546 40.237L104.507 41.9665L98.1137 41.8394C98.0684 41.7433 98.0345 41.65 98.0006 41.5652C97.8083 41.0707 97.6132 40.5761 97.4322 40.0957L104.549 40.237H104.546Z" fill="#E94E1B"/>
<path d="M105.027 40.2451L107.283 40.2903L107.252 41.6157L104.996 41.5705L105.027 40.2451Z" fill="#E94E1B"/>
<path d="M113.385 40.4125L113.345 42.1448L107.724 42.0318L107.764 40.3022L113.385 40.4125Z" fill="#E94E1B"/>
<path d="M113.868 40.4233L116.136 40.4686L116.105 41.7911L113.837 41.7459L113.868 40.4233Z" fill="#E94E1B"/>
<path d="M118.076 40.5081L118.036 42.2377L116.577 42.2066L116.617 40.4771L118.076 40.5081Z" fill="#E94E1B"/>
<path d="M120.827 40.5618L120.796 41.8844L118.528 41.8392L118.559 40.5166L120.827 40.5618Z" fill="#E94E1B"/>
<path d="M21.2174 29.1592C22.0148 30.1341 22.3428 31.1515 22.3569 32.6126L11.4598 32.395L13.8858 29.0122L21.2174 29.1592Z" fill="#E94E1B"/>
<path d="M25.241 29.2409C25.4106 30.2554 25.4785 31.383 25.4502 32.6745L23.1458 32.6293C23.1316 31.1908 22.8065 30.1424 22.0798 29.1787L25.2381 29.2409H25.241Z" fill="#E94E1B"/>
<path d="M26.6292 29.266C26.55 30.046 26.4963 30.8373 26.4765 31.6398C26.468 31.9931 26.4596 32.3492 26.4765 32.694L25.9336 32.6827C25.9647 31.4222 25.894 30.2834 25.7244 29.249L26.6292 29.266Z" fill="#E94E1B"/>
<path d="M35.1909 29.4388C35.205 29.8966 35.205 30.3573 35.1937 30.8038C35.1711 31.7109 35.1202 32.4288 35.0721 32.8753L26.9544 32.7029C26.9374 32.3581 26.9459 32.0133 26.9544 31.6488C26.9742 30.8462 27.0279 30.0436 27.1071 29.2749L35.188 29.436L35.1909 29.4388Z" fill="#E94E1B"/>
<path d="M36.5537 29.4673L36.4717 32.9065L35.5556 32.8896C35.5867 32.5787 35.6517 31.8581 35.6772 30.8181C35.6857 30.4649 35.6857 29.9957 35.6744 29.4531L36.5537 29.4701V29.4673Z" fill="#E94E1B"/>
<path d="M37.0372 29.4756L39.2568 29.5208C39.2427 29.6141 39.2398 29.6988 39.237 29.7921L39.1607 32.9601L36.9524 32.9149L37.0344 29.4756H37.0372Z" fill="#E94E1B"/>
<path d="M41.909 30.0832L41.8383 33.011L39.7657 32.9686L39.8421 29.8006C39.8421 29.7073 39.8449 29.6226 39.859 29.5293L41.909 29.5689C41.9146 29.7356 41.9118 29.9023 41.909 30.0804V30.0832Z" fill="#E94E1B"/>
<path d="M44.7195 29.6395L44.6375 33.0675L42.4433 33.0223L42.514 30.0945C42.5168 29.9165 42.5225 29.7497 42.514 29.583L44.7223 29.6367L44.7195 29.6395Z" fill="#E94E1B"/>
<path d="M47.3971 29.6933C47.4 30.0154 47.4028 30.3602 47.3971 30.7248L47.3406 33.1213L45.2228 33.0789L45.3048 29.6509L47.4 29.6933H47.3971Z" fill="#E94E1B"/>
<path d="M50.1935 29.7493L50.1115 33.1773L47.9174 33.1321L47.9739 30.7356C47.9824 30.371 47.9796 30.0263 47.9739 29.7041L50.1935 29.7493Z" fill="#E94E1B"/>
<path d="M50.8014 29.7607L51.9748 29.7833L51.8928 33.2113L50.7222 33.1887L50.8014 29.7607Z" fill="#E94E1B"/>
<path d="M52.5827 29.7944L54.8617 29.8397C54.8447 30.0488 54.8277 30.2664 54.8221 30.4642L54.757 33.2676L52.5007 33.2224L52.5827 29.7944Z" fill="#E94E1B"/>
<path d="M58.43 29.9134C58.4696 30.5182 58.4865 31.1852 58.4696 31.9171C58.4583 32.4286 58.4356 32.8977 58.4045 33.3443L55.3961 33.2849L55.4611 30.4815C55.4668 30.2639 55.4809 30.0548 55.4979 29.8569L58.43 29.9163V29.9134Z" fill="#E94E1B"/>
<path d="M61.3988 29.973C61.4214 30.5466 61.4186 31.1401 61.4044 31.7675C61.3903 32.3412 61.3649 32.8809 61.3309 33.4038L59.0407 33.3585C59.0746 32.912 59.1 32.4316 59.1114 31.9314C59.1283 31.2334 59.1085 30.5551 59.0633 29.9277L61.4044 29.9758L61.3988 29.973Z" fill="#E94E1B"/>
<path d="M62.3516 29.9897C62.2725 30.7697 62.2187 31.561 62.1989 32.3523C62.1905 32.7168 62.182 33.0701 62.1989 33.4149L61.8116 33.4064C61.8483 32.8864 61.8738 32.3438 61.8851 31.7701C61.8992 31.154 61.9021 30.5493 61.8794 29.9756L62.3488 29.9841L62.3516 29.9897Z" fill="#E94E1B"/>
<path d="M70.9133 30.1627C70.9274 30.6205 70.9274 31.0698 70.9161 31.5192C70.8935 32.4263 70.8426 33.1441 70.7832 33.5906L62.6796 33.4295C62.6768 33.0848 62.6712 32.7315 62.6796 32.367C62.6994 31.5644 62.7532 30.7731 62.8323 30.0044L70.9133 30.1655V30.1627Z" fill="#E94E1B"/>
<path d="M71.3967 30.1703L72.2761 30.1873L72.1941 33.6152L71.2667 33.5955C71.3091 33.2846 71.3741 32.5668 71.3996 31.524C71.4081 31.1707 71.4081 30.7101 71.3967 30.1675V30.1703Z" fill="#E94E1B"/>
<path d="M75.1121 30.2473C75.098 30.2981 75.0867 30.3603 75.0838 30.4253C75.0358 30.8718 74.9877 31.3918 74.9736 31.9655L74.934 33.6837L72.6776 33.6385L72.7596 30.1992L75.1121 30.2473Z" fill="#E94E1B"/>
<path d="M77.8208 32.6657C77.8124 33.0303 77.8152 33.3863 77.8152 33.7396L75.6211 33.6972L75.6606 31.979C75.6748 31.4364 75.7172 30.9277 75.7568 30.4699C75.7681 30.3964 75.7709 30.3229 75.7822 30.2607L77.9566 30.3031C77.8859 31.0831 77.8378 31.8744 77.818 32.6657H77.8208Z" fill="#E94E1B"/>
<path d="M86.7245 30.4786C86.7387 30.9364 86.7387 31.3857 86.7274 31.8351C86.7048 32.7507 86.6539 33.4713 86.6058 33.9179L78.4881 33.7568C78.4853 33.412 78.4796 33.0474 78.4881 32.6829C78.5079 31.8803 78.5616 31.089 78.6408 30.3203L86.7217 30.4814L86.7245 30.4786Z" fill="#E94E1B"/>
<path d="M91.4012 31.759C90.8895 32.3836 90.4795 33.1268 90.1854 33.9859L87.1628 33.9266C87.1939 33.6242 87.259 32.8951 87.2844 31.8438C87.2929 31.4906 87.2929 31.0299 87.2816 30.4873L91.0874 30.5636C91.1722 30.9706 91.2825 31.3803 91.4041 31.759H91.4012Z" fill="#E94E1B"/>
<path d="M96.731 31.8125L98.2013 31.8408C98.1222 32.6434 98.0317 33.412 97.9186 34.1383L96.4341 34.1101C96.5586 33.3923 96.649 32.6236 96.731 31.8125Z" fill="#E94E1B"/>
<path d="M104.623 30.8351L104.541 34.2744L98.436 34.1529C98.5463 33.4463 98.6339 32.6974 98.7131 31.8864L98.7583 31.4399L96.3804 31.3918L96.3465 31.7762C96.2673 32.6183 96.1684 33.3983 96.0581 34.1048L95.2862 34.0907C95.1646 33.7346 95.0345 33.3672 94.9017 32.9998L94.7264 32.5279C95.2325 31.9542 95.634 31.3353 95.9309 30.6655L104.625 30.8379L104.623 30.8351Z" fill="#E94E1B"/>
<path d="M107.504 30.9026L107.425 34.3306L105.168 34.2854L105.25 30.8574L107.504 30.9026Z" fill="#E94E1B"/>
<path d="M113.427 31.0216L113.345 34.4608L108.086 34.345L108.165 30.917L113.427 31.0216Z" fill="#E94E1B"/>
<path d="M114.089 31.0327L116.357 31.0808L116.275 34.5172L114.01 34.472L114.089 31.0327Z" fill="#E94E1B"/>
<path d="M118.299 31.1171L118.217 34.5564L116.758 34.5282L116.84 31.0889L118.299 31.1171Z" fill="#E94E1B"/>
<path d="M118.78 31.1289L121.047 31.1741L120.968 34.6106L118.701 34.5654L118.78 31.1289Z" fill="#E94E1B"/>
<path d="M125.911 34.7099L121.449 34.6195L121.531 31.1802L123.244 31.2141C123.651 32.3586 124.327 33.3195 125.241 34.0571C125.526 34.2803 125.749 34.4951 125.913 34.7071L125.911 34.7099Z" fill="#E94E1B"/>
<path d="M129.109 34.7742L126.516 34.7233C126.295 34.3955 125.987 34.0875 125.574 33.7568C124.72 33.0729 124.138 32.2053 123.753 31.2275L127.949 31.3123C128.602 32.2336 128.976 33.3442 129.111 34.777L129.109 34.7742Z" fill="#E94E1B"/>
<path d="M135.329 31.4565L132.968 34.8505L129.592 34.7827C129.468 33.3923 129.12 32.2619 128.492 31.3208L135.329 31.4565Z" fill="#E94E1B"/>
<path d="M5.45988 41.7212L51.7938 42.6453L51.6185 50.1484L1.02832e-05 49.1282L5.45988 41.7212Z" fill="#E94E1B"/>
<path d="M52.2773 42.6562L54.5337 42.7015L54.3555 50.2046L52.0992 50.1594L52.2773 42.6562Z" fill="#E94E1B"/>
<path d="M120.143 44.0099L114.85 51.4L54.839 50.2131L55.0143 42.71L120.143 44.0099Z" fill="#E94E1B"/>
<path d="M132.117 44.4927L134.139 44.5322L128.69 52.0071L126.668 51.9675L132.117 44.4927Z" fill="#E94E1B"/>
<path d="M133.881 41.0649L135.903 41.1045L134.848 42.5514L132.827 42.509L133.881 41.0649Z" fill="#E94E1B"/>
<path d="M136.217 44.5723L138.238 44.6147L132.787 52.0895L130.765 52.05L136.217 44.5723Z" fill="#E94E1B"/>
<path d="M137.978 41.147L140 41.1865L138.948 42.6335L136.924 42.5911L137.978 41.147Z" fill="#E94E1B"/>
<path d="M122.518 44.3008L127.186 44.394L121.737 51.8689L117.069 51.7757L122.518 44.3008Z" fill="#E94E1B"/>
<path d="M25.2409 29.2411C24.8507 26.9096 23.9233 25.2224 22.4615 23.8377C20.8583 22.2636 20.1599 21.1953 20.2136 18.9147C20.2532 17.1965 20.9262 15.3624 22.3597 15.3907C23.5048 15.4133 24.3531 16.2639 24.7744 16.8461L25.4332 12.5025C24.814 11.697 23.8413 10.9707 22.5011 10.9425C19.8234 10.8888 18.0478 14.5542 17.9319 19.3895C17.8301 23.6625 19.0713 26.2822 21.0675 28.0739C21.469 28.4469 21.8112 28.8087 22.0798 29.1789C22.8036 30.1426 23.1288 31.191 23.1457 32.6295C23.1542 32.7651 23.1514 32.9008 23.1457 33.0477C23.0892 35.464 22.2409 37.0748 20.7933 37.0466C19.6368 37.024 18.5596 36.1253 17.847 35.0994L17.3918 38.4992L17.2448 39.5702C17.3381 39.7087 17.4314 39.8359 17.5501 39.963C17.6321 40.0591 17.7141 40.1439 17.7961 40.24C18.0676 40.5056 18.3758 40.7402 18.7094 40.9465C19.2806 41.2913 19.9139 41.523 20.5416 41.5343C21.2287 41.5484 21.8479 41.3619 22.388 41.0172C22.682 40.8363 22.9393 40.6102 23.1882 40.3446C23.2617 40.2513 23.338 40.1693 23.4115 40.0789C23.7338 39.6691 24.0251 39.1831 24.2654 38.6376C25.0034 37.0466 25.3908 34.9384 25.4445 32.6973V32.6775C25.4756 31.386 25.4049 30.2584 25.2352 29.2439L25.2409 29.2411Z" fill="white"/>
<path d="M35.1909 29.4384C35.1061 25.4339 34.1786 21.1807 31.5745 21.1299C29.1372 21.0818 27.5906 24.7839 27.1099 29.2773C27.0308 30.046 26.9771 30.8486 26.9573 31.6512C26.9488 32.0158 26.9403 32.3605 26.9573 32.7053C26.9714 35.1357 27.3107 37.1846 27.9129 38.7078C28.1278 39.2758 28.3823 39.7704 28.6735 40.183C28.7442 40.2791 28.8149 40.3723 28.8715 40.4571C29.1061 40.7341 29.3408 40.9771 29.6038 41.1608C30.1127 41.5367 30.6867 41.7345 31.3144 41.7486C32.1118 41.7656 32.8271 41.5593 33.4378 41.2371C33.8054 41.0478 34.1475 40.8132 34.4444 40.5702L34.4699 40.5504L34.4529 40.2989L34.3426 38.8378L34.2154 37.1054C33.5255 37.6537 32.7706 37.9617 31.7216 37.9419C30.2993 37.9137 29.0694 36.3565 29.092 32.7901L35.0749 32.9088V32.8777C35.123 32.4312 35.1767 31.7134 35.1965 30.8062C35.2078 30.3569 35.205 29.899 35.1937 29.4412L35.1909 29.4384ZM31.3625 24.5239C32.8695 24.555 33.1607 27.5619 33.0929 29.3847L29.174 29.3056C29.3182 27.2765 29.9629 24.4928 31.3625 24.5211V24.5239Z" fill="white"/>
<path d="M47.4113 21.447C46.6761 21.4329 46.0993 21.8285 45.5875 22.5774C45.1521 23.1427 44.7591 23.9481 44.4311 25.0248H44.383C44.0607 22.8374 43.1785 21.3623 41.9966 21.3368C40.5009 21.3057 39.6498 23.1144 39.1663 24.6376H39.1183L39.09 21.7155L37.1475 21.6759C37.1673 23.3857 37.1334 25.282 37.0796 27.5541L36.7516 41.4045L38.9599 41.4497L39.237 29.7895C39.237 29.6962 39.2398 29.6114 39.2568 29.5182C39.2681 29.0378 39.3162 28.5799 39.3982 28.1645C39.6357 26.7939 40.2379 25.3441 41.0805 25.3611C42.0701 25.3809 42.5225 27.0991 42.5141 29.5804C42.5225 29.7471 42.5169 29.9138 42.5141 30.0919L42.2426 41.5119L44.4367 41.5571L44.7195 29.6369C44.7308 29.1056 44.793 28.5319 44.8637 28.0769C45.138 26.6639 45.7346 25.4572 46.5065 25.4713C47.4593 25.4911 47.94 27.0426 47.9739 29.7019C47.9796 30.024 47.9824 30.3688 47.9739 30.7334L47.7166 41.6221L49.9108 41.6673L50.1935 29.7471C50.2896 23.6513 48.8702 21.4725 47.4084 21.4442L47.4113 21.447Z" fill="white"/>
<path d="M61.3988 29.9728C61.2178 24.8605 59.7362 21.6925 57.8899 21.6557C56.527 21.6275 55.4611 22.8596 54.7429 25.0753H54.7061L54.6694 22.0288L52.693 21.9892C52.6845 23.8544 52.6704 25.9598 52.611 28.5569L51.9918 54.7034L54.2481 54.7486L54.6072 39.5756H54.6439C54.7542 39.9967 54.9012 40.3726 55.0765 40.7117C55.1218 40.8078 55.1698 40.8898 55.2264 40.9858C55.3876 41.26 55.577 41.4945 55.7778 41.6839C56.1566 42.0456 56.5977 42.2519 57.0925 42.2632C57.5873 42.2745 58.0369 42.1049 58.4808 41.7376C58.7014 41.5539 58.9361 41.3391 59.1481 41.0621C59.2103 40.9802 59.2725 40.8869 59.3347 40.7937C59.609 40.4037 59.8748 39.9176 60.1038 39.3496C60.7061 37.9111 61.15 35.9414 61.3309 33.4008C61.3677 32.8808 61.3931 32.3382 61.4044 31.7645C61.4186 31.1399 61.4214 30.5436 61.3988 29.97V29.9728ZM56.6854 38.4057C55.7325 38.3859 54.9578 36.9107 54.791 34.8759C54.7401 34.4379 54.7401 33.9886 54.7514 33.4997L54.8221 30.4673C54.8277 30.2695 54.8447 30.0519 54.8616 29.8428C54.8786 29.6252 54.9069 29.416 54.938 29.2069C55.2179 27.0224 56.1114 25.55 57.0501 25.5698C58.2066 25.5924 58.8767 27.4209 59.0576 29.9276C59.1029 30.5549 59.1227 31.2332 59.1057 31.9312C59.0944 32.4314 59.0718 32.9119 59.035 33.3584C58.7692 36.45 57.9266 38.4339 56.6825 38.4085L56.6854 38.4057Z" fill="white"/>
<path d="M70.9133 30.1621C70.8256 26.1576 69.901 21.896 67.2856 21.8423C64.8483 21.7942 63.313 25.5048 62.8323 30.001C62.7532 30.7697 62.6994 31.561 62.6796 32.3636C62.6712 32.7282 62.674 33.0842 62.6796 33.4262C62.7079 35.8566 63.0331 37.8941 63.6353 39.4202C63.8502 39.9882 64.1047 40.4828 64.3959 40.8954C64.4666 40.9915 64.5373 41.0847 64.5939 41.1695C64.8285 41.4465 65.0632 41.6895 65.3262 41.8732C65.8351 42.2491 66.4119 42.4469 67.0368 42.461C67.8313 42.478 68.5495 42.2717 69.1602 41.9495C69.5278 41.7602 69.8699 41.5256 70.164 41.2826C70.164 41.2826 70.1725 41.276 70.1895 41.2628L70.1725 41.0113L70.0622 39.5502L69.935 37.8178C69.2451 38.3661 68.4901 38.6741 67.4411 38.6544C66.9944 38.6459 66.5759 38.4904 66.197 38.1598C66.1264 38.0948 66.0444 38.0326 65.9737 37.9478C65.6909 37.6398 65.4478 37.2272 65.2555 36.6931C64.9727 35.8961 64.8059 34.8392 64.8116 33.5053L70.7804 33.624V33.5929C70.8398 33.1464 70.8935 32.4286 70.9161 31.5214C70.9274 31.0721 70.9246 30.6256 70.9133 30.1649V30.1621ZM67.0849 25.2363C68.5806 25.2674 68.8831 28.2743 68.8153 30.0971L64.8964 30.018C65.0406 27.9889 65.6853 25.2052 67.0849 25.2335V25.2363Z" fill="white"/>
<path d="M77.4278 22.0461C76.4749 22.0263 75.392 23.4224 74.8915 26.2089H74.818L74.835 22.4333L72.8699 22.3937C72.8756 24.1769 72.8558 26.0845 72.7907 28.7636L72.474 42.1223L74.7304 42.1675L74.9707 31.9655C74.9849 31.3918 75.0329 30.8718 75.081 30.4253C75.081 30.3631 75.0951 30.301 75.1093 30.2473C75.3779 28.1164 76.1356 26.6808 77.1846 26.7034C77.4617 26.7091 77.6653 26.7854 77.8434 26.873L77.9537 22.1733C77.7756 22.097 77.6427 22.0518 77.425 22.0489L77.4278 22.0461Z" fill="white"/>
<path d="M86.7245 30.479C86.651 26.4745 85.7264 22.2128 83.1082 22.1592C80.6709 22.1111 79.1243 25.8217 78.6436 30.3179C78.5644 31.0866 78.5107 31.8779 78.4909 32.6805C78.4824 33.045 78.4853 33.4096 78.4909 33.7544C78.5192 36.1735 78.8557 38.2139 79.4466 39.7371C79.6615 40.3051 79.9273 40.7997 80.2072 41.2123C80.2779 41.3084 80.3486 41.4016 80.4164 41.4864C80.6398 41.7605 80.8858 42.0064 81.1487 42.1901C81.6577 42.566 82.2317 42.7638 82.8594 42.7779C83.6426 42.7949 84.3608 42.5886 84.9715 42.2664C85.3391 42.0771 85.6812 41.8425 85.9781 41.5995L86.0035 41.5797L85.9866 41.3282L85.8876 39.8671L85.7604 38.1347C85.0705 38.683 84.3042 38.991 83.2552 38.9712C81.833 38.943 80.603 37.3858 80.637 33.8194L86.6058 33.9381V33.9183C86.6539 33.4718 86.7076 32.754 86.7274 31.8355C86.7387 31.3862 86.7358 30.9396 86.7245 30.479ZM82.8961 25.5532C84.4032 25.5843 84.6944 28.5912 84.6379 30.414L80.719 30.3349C80.8519 28.3058 81.5078 25.5221 82.8961 25.5504V25.5532Z" fill="white"/>
<path d="M97.8535 42.523C97.7631 42.2913 97.6726 42.0595 97.5793 41.8306C97.5454 41.7374 97.5114 41.6413 97.4775 41.5565C97.2852 41.0619 97.1014 40.5702 96.9092 40.087C96.8187 39.8354 96.7169 39.5726 96.6123 39.3211C97.2117 37.9363 97.616 36.1927 97.9186 34.1438C98.0317 33.4175 98.1222 32.646 98.2013 31.8462L96.731 31.818C96.6519 32.6291 96.5614 33.4006 96.4341 34.1155C96.2617 35.2686 96.044 36.2859 95.7838 37.1055C95.4643 36.2859 95.0572 35.2036 94.65 34.0788C94.4577 33.5532 94.2655 33.019 94.0732 32.5047L94.0873 32.3917C94.5935 31.8491 95.0063 31.2725 95.2975 30.6536C95.8149 29.6419 96.0496 28.5002 96.0779 27.2087C96.1429 24.4901 95.207 22.7181 93.9403 22.6927C92.2636 22.6588 91.3447 25.2785 91.2853 27.7683C91.2627 28.7263 91.373 29.6984 91.5681 30.5773C91.667 31.0069 91.7773 31.4167 91.913 31.7841V31.866C91.4154 32.4284 90.9884 33.1293 90.6661 33.9997C90.2929 34.9944 90.0582 36.187 90.0242 37.6142C90.0045 38.4281 90.0582 39.2194 90.2109 39.9541C90.307 40.4883 90.4512 40.9913 90.6463 41.4237C90.6802 41.5169 90.7255 41.613 90.7594 41.6978C90.8866 41.9606 91.0365 42.1924 91.2005 42.3958C91.6331 42.9582 92.1929 43.2917 92.88 43.3058C93.5558 43.3199 94.1524 43.0289 94.6868 42.4665C94.8734 42.2715 95.0459 42.0454 95.2212 41.7882C95.2721 41.7063 95.3343 41.613 95.3852 41.5198C95.4219 41.4689 95.4474 41.4265 95.4728 41.3756C95.4954 41.4293 95.5067 41.4689 95.5294 41.5226C95.5633 41.6158 95.6085 41.7119 95.6425 41.7967C95.7329 42.0482 95.8234 42.2687 95.9167 42.4891C95.9959 42.6784 96.0638 42.8678 96.1457 43.0458L98.0769 43.0854C97.9977 42.896 97.9299 42.718 97.8479 42.5287L97.8535 42.523ZM93.7933 25.0185H93.8046C94.4323 25.0327 94.6811 26.2252 94.6557 27.2991C94.6246 28.6641 94.1665 29.5713 93.3833 30.6113C93.3833 30.6226 93.3692 30.6423 93.3578 30.6536C93.3578 30.6423 93.3465 30.6226 93.3465 30.6113C92.9733 29.6024 92.7556 28.6302 92.781 27.4404C92.8093 26.1913 93.1769 25.0101 93.7905 25.0214L93.7933 25.0185ZM91.6133 37.049C91.6472 35.6303 92.0318 34.6808 92.4219 34.0308C92.4842 33.9177 92.5605 33.8132 92.6227 33.7227C92.6566 33.8273 92.7019 33.9318 92.7358 34.0364C93.4964 36.0938 94.2457 38.0805 94.7461 39.2985C94.6189 39.567 94.4691 39.8241 94.2937 40.0304C93.9827 40.4091 93.6038 40.6409 93.2052 40.6352H93.1939C92.8065 40.6267 92.4757 40.3922 92.2184 39.9909C91.8112 39.3465 91.5822 38.2783 91.6133 37.049Z" fill="white"/>
<path d="M112.698 17.4736L112.8 13.1271L105.672 12.9858L104.987 41.9555L107.244 42.0008L107.535 29.7047L112.081 29.7951L112.183 25.46L107.637 25.3695L107.826 17.3775L112.698 17.4736Z" fill="white"/>
<path d="M114.295 22.4053L113.829 42.131L116.096 42.1762L116.563 22.4505L114.295 22.4053Z" fill="white"/>
<path d="M119.26 10.8179L118.517 42.2264L120.784 42.2717L121.528 10.8631L119.26 10.8179Z" fill="white"/>
<path d="M129.109 34.7745C128.973 33.3445 128.602 32.2311 127.946 31.3098C127.667 30.9085 127.313 30.5467 126.923 30.2161C125.812 29.2976 125.402 28.6844 125.433 27.424C125.461 26.2144 125.916 25.3694 126.725 25.3864C127.534 25.4034 128.218 26.0618 128.591 26.5592L129.109 23.0464C128.617 22.4332 127.763 21.8425 126.773 21.8228C124.698 21.7804 123.332 24.4764 123.25 27.9553C123.21 29.1111 123.377 30.2302 123.753 31.2278C124.141 32.2056 124.723 33.0704 125.574 33.7571C125.99 34.0878 126.295 34.3958 126.516 34.7236C126.866 35.2521 126.996 35.8286 126.977 36.6623C126.946 37.9538 126.479 38.8327 125.489 38.8129C124.681 38.7959 123.734 38.047 123.23 37.349L122.71 40.9466C123.343 41.7718 124.305 42.3963 125.39 42.4189C127.754 42.467 129.072 39.8642 129.154 36.3005C129.168 35.7579 129.154 35.2464 129.106 34.7773L129.109 34.7745Z" fill="white"/>
</svg>
