<svg width="116" height="45" viewBox="0 0 116 45" fill="none" xmlns="http://www.w3.org/2000/svg">
<path d="M55.1534 15.5513C56.0412 14.1669 56.9034 12.822 57.7679 11.4794C60.078 7.89062 65.2628 0 65.2628 0L66.7944 0.0301978C66.7944 0.0301978 59.4528 10.7105 56.0946 15.5629L55.1534 15.5536V15.5513Z" fill="#E94E1B"/>
<path d="M68.3794 15.8161C69.2671 14.4317 70.1293 13.0868 70.9939 11.7442C73.3039 8.15542 78.4888 0.264793 78.4888 0.264793L80.0203 0.294991C80.0203 0.294991 72.6788 10.9753 69.3206 15.8277L68.3794 15.8184V15.8161Z" fill="#E94E1B"/>
<path d="M97.053 12.2645C97.2064 12.0183 97.383 11.7488 97.5666 11.4701L97.5247 13.2261C96.723 14.3922 95.9839 15.4653 95.3774 16.3457L94.4361 16.3364C95.3216 14.9566 96.1861 13.6117 97.0506 12.2668L97.053 12.2645Z" fill="#E94E1B"/>
<path d="M100.272 9.49337L100.295 8.52476L99.6419 8.51082C101.968 4.94065 104.539 1.03366 104.539 1.03366L106.065 1.06386C106.065 1.06386 103.23 5.19848 100.272 9.49105V9.49337Z" fill="#E94E1B"/>
<path d="M13.944 32.8354C14.0021 32.9144 14.0602 32.984 14.1276 33.0607L5.06633 32.8795L5.93319 31.4742L13.8929 31.6322L13.7837 32.4777L13.7721 32.5985L13.8395 32.6937C13.8674 32.7378 13.9069 32.7889 13.9464 32.8331L13.944 32.8354Z" fill="#E94E1B"/>
<path d="M19.9493 31.7553C19.7494 32.2059 19.5124 32.6031 19.2474 32.9399C19.187 33.0166 19.1243 33.0839 19.0638 33.1583L14.6319 33.07C14.5645 32.991 14.4972 32.9213 14.4298 32.8424C14.3321 32.7378 14.2555 32.6333 14.1788 32.5195L14.2996 31.6391L19.9493 31.753V31.7553Z" fill="#E94E1B"/>
<path d="M23.0937 33.0189C23.1425 33.0979 23.189 33.1745 23.2471 33.2442L19.5496 33.1699C19.6216 33.1025 19.682 33.0259 19.7332 32.9515C19.9795 32.6054 20.2073 32.2059 20.3862 31.7646L22.508 31.8064C22.6754 32.264 22.8752 32.6705 23.0937 33.0189Z" fill="#E94E1B"/>
<path d="M28.318 33.1234L28.332 33.3302L28.3111 33.3464L23.7304 33.2558C23.6816 33.1861 23.6259 33.1072 23.5678 33.0305C23.3284 32.6914 23.1192 32.2849 22.9426 31.818L28.2251 31.9225L28.3157 33.1234H28.318Z" fill="#E94E1B"/>
<path d="M28.6225 31.9295L29.8612 31.9527L29.8287 33.3743L28.7271 33.3534L28.7294 33.3116L28.7131 33.1304L28.6225 31.9295Z" fill="#E94E1B"/>
<path d="M30.2586 31.962L32.0736 31.9969L32.0388 33.4184L30.2237 33.3836L30.2586 31.962Z" fill="#E94E1B"/>
<path d="M32.4687 32.0061L34.3721 32.0433L34.3396 33.4649L32.4362 33.4277L32.4687 32.0061Z" fill="#E94E1B"/>
<path d="M34.7695 32.0526L36.5729 32.0874L36.5404 33.509L34.7346 33.4742L34.7695 32.0526Z" fill="#E94E1B"/>
<path d="M36.9703 32.0944L38.8737 32.1339L38.8388 33.5555L36.9355 33.5183L36.9703 32.0944Z" fill="#E94E1B"/>
<path d="M39.2688 32.1409L41.0746 32.178L41.0397 33.5996L39.2363 33.5624L39.2688 32.1409Z" fill="#E94E1B"/>
<path d="M41.4696 32.185L42.6386 32.2082L42.6061 33.6298L41.4371 33.6066L41.4696 32.185Z" fill="#E94E1B"/>
<path d="M49.3992 32.3429C49.2086 32.8098 48.9925 33.2094 48.767 33.5299C48.7159 33.6066 48.6648 33.6832 48.6136 33.7506L45.3926 33.6855C45.3438 33.6066 45.3066 33.5392 45.2694 33.4602C45.1276 33.1838 45.0068 32.8725 44.9138 32.5288H44.8836L44.8557 33.6762L43.0012 33.6391L43.0337 32.2175L49.3968 32.3453L49.3992 32.3429Z" fill="#E94E1B"/>
<path d="M52.4552 33.6043C52.5041 33.6832 52.5505 33.7599 52.6086 33.8296L49.0506 33.7576C49.1017 33.6902 49.1435 33.6135 49.1947 33.5369C49.4201 33.1978 49.6176 32.8006 49.8082 32.3499L51.8696 32.3917C52.0369 32.8493 52.2368 33.2558 52.4552 33.6043Z" fill="#E94E1B"/>
<path d="M57.6796 33.7088L57.6935 33.9155C57.6935 33.9155 57.6842 33.9248 57.6726 33.9318L53.092 33.8412C53.0432 33.7715 52.9874 33.6925 52.9293 33.6159C52.6899 33.2767 52.4808 32.8702 52.3041 32.4034L57.5866 32.5079L57.6773 33.7088H57.6796Z" fill="#E94E1B"/>
<path d="M57.984 32.5148L59.2227 32.5404L59.1902 33.962L58.0909 33.9387L58.0816 33.8969L58.0654 33.7157L57.984 32.5148Z" fill="#E94E1B"/>
<path d="M59.6201 32.5474L61.4747 32.5845L61.4398 34.0061L59.5876 33.9689L59.6201 32.5474Z" fill="#E94E1B"/>
<path d="M65.6045 34.0897L61.8373 34.0154L61.8698 32.5938L64.8724 32.6542C65.0305 33.1118 65.228 33.5183 65.4581 33.8667C65.5069 33.9457 65.5534 34.0223 65.6022 34.092L65.6045 34.0897Z" fill="#E94E1B"/>
<path d="M70.6894 34.1733L70.6685 34.1896L66.0995 34.099C66.0414 34.0293 65.9833 33.9503 65.9275 33.8737C65.6974 33.5346 65.479 33.1281 65.3024 32.6612L70.5965 32.7657L70.6778 33.9666L70.6917 34.1733H70.6894Z" fill="#E94E1B"/>
<path d="M71.0845 34.1989V34.1571L71.0705 33.9759L70.9892 32.775L73.7455 32.8308C73.8245 33.2605 73.9337 33.6646 74.0848 34.0363C74.1127 34.113 74.1498 34.1919 74.1893 34.2616L71.0868 34.1989H71.0845Z" fill="#E94E1B"/>
<path d="M80.2062 34.3801L78.6213 34.3475C78.5934 34.2779 78.5562 34.2012 78.5283 34.1222C78.5097 34.0781 78.5004 34.0456 78.4818 34.0014C78.4609 34.0432 78.44 34.0781 78.4098 34.1199C78.368 34.1966 78.3168 34.2732 78.275 34.3406L74.6077 34.2662C74.5798 34.1966 74.5426 34.1199 74.5147 34.0409C74.3544 33.6855 74.2359 33.2721 74.1568 32.8331L75.8022 32.8656C76.0137 33.1954 76.2856 33.3882 76.604 33.3952H76.6133C76.941 33.4021 77.2524 33.2117 77.5081 32.8981L79.6601 32.9399C79.8181 33.3371 79.9692 33.7436 80.1272 34.1478C80.1551 34.2175 80.183 34.2941 80.2109 34.3731L80.2062 34.3801Z" fill="#E94E1B"/>
<path d="M85.9303 33.0723L85.8977 34.4939L80.6431 34.3894C80.606 34.3104 80.5781 34.2337 80.5502 34.164C80.3921 33.7576 80.2318 33.3511 80.0831 32.9562L85.9326 33.0723H85.9303Z" fill="#E94E1B"/>
<path d="M86.3254 33.0793L88.1799 33.1165L88.1543 34.2059L86.2998 34.1687L86.3254 33.0793Z" fill="#E94E1B"/>
<path d="M93.1951 33.2164L93.1626 34.6402L88.5424 34.5473L88.575 33.1258L93.1951 33.2164Z" fill="#E94E1B"/>
<path d="M93.5925 33.2256L95.4564 33.2628L95.4308 34.3499L93.567 34.3127L93.5925 33.2256Z" fill="#E94E1B"/>
<path d="M97.0507 33.2953L97.0181 34.7169L95.819 34.6913L95.8515 33.2698L97.0507 33.2953Z" fill="#E94E1B"/>
<path d="M99.3119 33.3395L99.2863 34.4265L97.4225 34.3894L97.4481 33.3023L99.3119 33.3395Z" fill="#E94E1B"/>
<path d="M17.4394 23.9669C18.0947 24.7682 18.3643 25.6044 18.376 26.8053L9.41923 26.6265L11.4132 23.8461L17.4394 23.9669Z" fill="#E94E1B"/>
<path d="M20.7465 24.0342C20.8859 24.8681 20.9417 25.7949 20.9184 26.8565L19.0244 26.8193C19.0127 25.637 18.7455 24.7752 18.1482 23.9831L20.7441 24.0342H20.7465Z" fill="#E94E1B"/>
<path d="M21.8875 24.0551C21.8224 24.6962 21.7783 25.3466 21.762 26.0063C21.755 26.2966 21.7481 26.5893 21.762 26.8727L21.3158 26.8634C21.3414 25.8274 21.2833 24.8913 21.1438 24.0412L21.8875 24.0551Z" fill="#E94E1B"/>
<path d="M28.9246 24.1968C28.9362 24.5731 28.9362 24.9517 28.927 25.3187C28.9084 26.0644 28.8665 26.6544 28.827 27.0214L22.1548 26.8797C22.1408 26.5963 22.1478 26.3129 22.1548 26.0133C22.171 25.3536 22.2152 24.6939 22.2803 24.0621L28.9223 24.1945L28.9246 24.1968Z" fill="#E94E1B"/>
<path d="M30.0448 24.22L29.9774 27.0469L29.2244 27.033C29.25 26.7775 29.3034 26.1852 29.3244 25.3304C29.3313 25.04 29.3313 24.6544 29.322 24.2084L30.0448 24.2224V24.22Z" fill="#E94E1B"/>
<path d="M30.4422 24.227L32.2666 24.2642C32.255 24.3408 32.2526 24.4105 32.2503 24.4872L32.1875 27.091L30.3725 27.0539L30.4399 24.227H30.4422Z" fill="#E94E1B"/>
<path d="M34.4465 24.7264L34.3884 27.1329L32.6849 27.098L32.7476 24.4941C32.7476 24.4175 32.75 24.3478 32.7616 24.2711L34.4465 24.3037C34.4511 24.4407 34.4488 24.5778 34.4465 24.7241V24.7264Z" fill="#E94E1B"/>
<path d="M36.7565 24.3617L36.6891 27.1793L34.8857 27.1422L34.9438 24.7357C34.9461 24.5894 34.9508 24.4523 34.9438 24.3153L36.7589 24.3594L36.7565 24.3617Z" fill="#E94E1B"/>
<path d="M38.9574 24.4059C38.9597 24.6707 38.962 24.9541 38.9574 25.2537L38.9109 27.2235L37.1702 27.1886L37.2376 24.371L38.9597 24.4059H38.9574Z" fill="#E94E1B"/>
<path d="M41.2558 24.4523L41.1884 27.2699L39.385 27.2328L39.4315 25.263C39.4385 24.9634 39.4361 24.68 39.4315 24.4152L41.2558 24.4523Z" fill="#E94E1B"/>
<path d="M41.7555 24.4616L42.72 24.4802L42.6526 27.2978L41.6904 27.2792L41.7555 24.4616Z" fill="#E94E1B"/>
<path d="M43.2196 24.4895L45.0928 24.5267C45.0788 24.6986 45.0649 24.8774 45.0602 25.04L45.0068 27.3442L43.1522 27.3071L43.2196 24.4895Z" fill="#E94E1B"/>
<path d="M48.0257 24.5871C48.0582 25.0841 48.0722 25.6323 48.0582 26.2339C48.0489 26.6544 48.0303 27.04 48.0048 27.407L45.532 27.3582L45.5855 25.0539C45.5901 24.8751 45.6018 24.7032 45.6157 24.5406L48.0257 24.5894V24.5871Z" fill="#E94E1B"/>
<path d="M50.4659 24.6358C50.4845 25.1074 50.4821 25.5952 50.4705 26.1108C50.4589 26.5824 50.438 27.026 50.4101 27.4557L48.5276 27.4186C48.5555 27.0516 48.5764 26.6567 48.5857 26.2456C48.5997 25.6718 48.5834 25.1143 48.5462 24.5987L50.4705 24.6382L50.4659 24.6358Z" fill="#E94E1B"/>
<path d="M51.249 24.6498C51.184 25.2909 51.1398 25.9413 51.1235 26.5917C51.1166 26.8913 51.1096 27.1817 51.1235 27.465L50.8052 27.4581C50.8354 27.0307 50.8563 26.5847 50.8656 26.1132C50.8772 25.6068 50.8795 25.1097 50.8609 24.6382L51.2467 24.6451L51.249 24.6498Z" fill="#E94E1B"/>
<path d="M58.2862 24.7915C58.2978 25.1678 58.2978 25.5371 58.2885 25.9064C58.2699 26.6521 58.2281 27.242 58.1793 27.6091L51.5186 27.4766C51.5163 27.1933 51.5117 26.9029 51.5186 26.6033C51.5349 25.9436 51.5791 25.2932 51.6441 24.6614L58.2862 24.7938V24.7915Z" fill="#E94E1B"/>
<path d="M58.6836 24.7984L59.4063 24.8124L59.3389 27.63L58.5767 27.6137C58.6115 27.3582 58.665 26.7682 58.6859 25.9111C58.6929 25.6207 58.6929 25.2421 58.6836 24.7961V24.7984Z" fill="#E94E1B"/>
<path d="M61.7373 24.8611C61.7257 24.903 61.7164 24.9541 61.7141 25.0075C61.6746 25.3745 61.6351 25.8019 61.6235 26.2734L61.5909 27.6857L59.7364 27.6485L59.8038 24.8217L61.7373 24.8611Z" fill="#E94E1B"/>
<path d="M63.9637 26.8495C63.9568 27.1491 63.9591 27.4418 63.9591 27.7322L62.1557 27.6973L62.1882 26.285C62.1998 25.8391 62.2347 25.4209 62.2672 25.0447C62.2765 24.9843 62.2788 24.9239 62.2881 24.8728L64.0753 24.9076C64.0172 25.5487 63.9777 26.1991 63.9614 26.8495H63.9637Z" fill="#E94E1B"/>
<path d="M71.282 25.0516C71.2936 25.4279 71.2936 25.7972 71.2843 26.1666C71.2658 26.9192 71.2239 27.5115 71.1844 27.8785L64.5122 27.7461C64.5099 27.4627 64.5052 27.1631 64.5122 26.8634C64.5284 26.2037 64.5726 25.5533 64.6377 24.9215L71.2797 25.0539L71.282 25.0516Z" fill="#E94E1B"/>
<path d="M75.126 26.1038C74.7053 26.6172 74.3683 27.2281 74.1266 27.9342L71.6423 27.8855C71.6678 27.6369 71.7213 27.0376 71.7422 26.1735C71.7492 25.8832 71.7492 25.5046 71.7399 25.0586L74.868 25.1213C74.9377 25.4558 75.0284 25.7926 75.1283 26.1038H75.126Z" fill="#E94E1B"/>
<path d="M79.5067 26.148L80.7152 26.1712C80.6501 26.8309 80.5758 27.4627 80.4828 28.0597L79.2627 28.0364C79.3649 27.4465 79.4393 26.8146 79.5067 26.148Z" fill="#E94E1B"/>
<path d="M85.993 25.3443L85.9256 28.1712L80.9081 28.0713C80.9987 27.4906 81.0708 26.8751 81.1358 26.2084L81.173 25.8414L79.2185 25.8019L79.1906 26.1178C79.1256 26.81 79.0442 27.4511 78.9536 28.0318L78.3191 28.0202C78.2192 27.7275 78.1123 27.4256 78.0031 27.1236L77.859 26.7357C78.275 26.2641 78.605 25.7554 78.849 25.2049L85.9953 25.3466L85.993 25.3443Z" fill="#E94E1B"/>
<path d="M88.3612 25.4L88.2961 28.2176L86.4416 28.1805L86.509 25.3629L88.3612 25.4Z" fill="#E94E1B"/>
<path d="M93.23 25.4976L93.1626 28.3245L88.8399 28.2292L88.905 25.4117L93.23 25.4976Z" fill="#E94E1B"/>
<path d="M93.7738 25.5069L95.6377 25.5464L95.5703 28.3709L93.7087 28.3338L93.7738 25.5069Z" fill="#E94E1B"/>
<path d="M97.2343 25.5766L97.1669 28.4034L95.9677 28.3802L96.0351 25.5533L97.2343 25.5766Z" fill="#E94E1B"/>
<path d="M97.6293 25.5859L99.4932 25.623L99.4281 28.4476L97.5643 28.4104L97.6293 25.5859Z" fill="#E94E1B"/>
<path d="M103.49 28.5289L99.8232 28.4546L99.8906 25.6277L101.299 25.6556C101.634 26.5963 102.189 27.3861 102.94 27.9923C103.174 28.1758 103.358 28.3524 103.493 28.5266L103.49 28.5289Z" fill="#E94E1B"/>
<path d="M106.119 28.5823L103.988 28.5405C103.807 28.2711 103.553 28.0179 103.214 27.7461C102.512 27.184 102.033 26.4709 101.717 25.6672L105.166 25.7369C105.703 26.4941 106.01 27.407 106.121 28.5846L106.119 28.5823Z" fill="#E94E1B"/>
<path d="M111.232 25.8553L109.291 28.645L106.516 28.5893C106.414 27.4464 106.128 26.5173 105.612 25.7438L111.232 25.8553Z" fill="#E94E1B"/>
<path d="M4.48767 34.2918L42.5712 35.0514L42.4271 41.2184L5.02958e-06 40.3799L4.48767 34.2918Z" fill="#E94E1B"/>
<path d="M42.9686 35.0607L44.8232 35.0978L44.6768 41.2649L42.8222 41.2277L42.9686 35.0607Z" fill="#E94E1B"/>
<path d="M98.7495 36.1733L94.399 42.2475L45.0742 41.2719L45.2183 35.1048L98.7495 36.1733Z" fill="#E94E1B"/>
<path d="M108.592 36.5705L110.253 36.603L105.775 42.7469L104.113 42.7144L108.592 36.5705Z" fill="#E94E1B"/>
<path d="M110.042 33.7529L111.704 33.7854L110.837 34.9747L109.175 34.9399L110.042 33.7529Z" fill="#E94E1B"/>
<path d="M111.961 36.6355L113.623 36.6704L109.142 42.8142L107.481 42.7817L111.961 36.6355Z" fill="#E94E1B"/>
<path d="M113.409 33.8203L115.071 33.8528L114.207 35.0421L112.543 35.0072L113.409 33.8203Z" fill="#E94E1B"/>
<path d="M100.702 36.4125L104.539 36.4892L100.06 42.6331L96.2233 42.5564L100.702 36.4125Z" fill="#E94E1B"/>
<path d="M20.7464 24.0342C20.4257 22.1179 19.6634 20.7312 18.4619 19.593C17.1442 18.2992 16.5702 17.4211 16.6143 15.5466C16.6469 14.1344 17.2 12.6268 18.3782 12.6501C19.3195 12.6687 20.0167 13.3678 20.3629 13.8463L20.9044 10.2761C20.3955 9.61414 19.596 9.01718 18.4944 8.99395C16.2936 8.94981 14.8341 11.9625 14.7388 15.9369C14.6552 19.449 15.6754 21.6022 17.3162 23.0749C17.6462 23.3815 17.9274 23.6788 18.1482 23.9831C18.7431 24.7752 19.0104 25.637 19.0243 26.8193C19.0313 26.9308 19.029 27.0423 19.0243 27.163C18.9778 29.1491 18.2806 30.4731 17.0907 30.4498C16.1402 30.4313 15.2548 29.6926 14.6691 28.8494L14.295 31.6438L14.1741 32.5241C14.2508 32.6379 14.3275 32.7425 14.4251 32.847C14.4925 32.926 14.5599 32.9957 14.6273 33.0746C14.8504 33.293 15.1037 33.4858 15.3779 33.6553C15.8474 33.9387 16.368 34.1292 16.8839 34.1385C17.4486 34.1501 17.9576 33.9968 18.4015 33.7134C18.6432 33.5647 18.8547 33.3789 19.0592 33.1606C19.1196 33.0839 19.1823 33.0166 19.2428 32.9422C19.5077 32.6054 19.7471 32.2059 19.9446 31.7576C20.5512 30.4498 20.8696 28.717 20.9137 26.875V26.8588C20.9393 25.7972 20.8812 24.8704 20.7418 24.0365L20.7464 24.0342Z" fill="#2D2E83"/>
<path d="M28.9247 24.1968C28.8549 20.9054 28.0926 17.4095 25.9522 17.3677C23.9489 17.3282 22.6777 20.3711 22.2826 24.0644C22.2176 24.6962 22.1734 25.3559 22.1571 26.0156C22.1502 26.3152 22.1432 26.5986 22.1571 26.882C22.1688 28.8796 22.4476 30.5637 22.9427 31.8157C23.1193 32.2826 23.3284 32.6891 23.5678 33.0282C23.6259 33.1072 23.684 33.1838 23.7305 33.2535C23.9234 33.4811 24.1163 33.6809 24.3324 33.8319C24.7507 34.1408 25.2225 34.3034 25.7384 34.315C26.3938 34.329 26.9818 34.1594 27.4838 33.8946C27.7859 33.739 28.0671 33.5462 28.3111 33.3464L28.332 33.3302L28.3181 33.1234L28.2274 31.9225L28.1229 30.4986C27.5558 30.9493 26.9353 31.2025 26.0731 31.1862C24.9041 31.163 23.8932 29.8831 23.9118 26.9517L28.8294 27.0492V27.0237C28.8689 26.6567 28.913 26.0667 28.9293 25.3211C28.9386 24.9517 28.9363 24.5754 28.927 24.1992L28.9247 24.1968ZM25.7779 20.1574C27.0166 20.183 27.256 22.6545 27.2002 24.1527L23.9792 24.0877C24.0977 22.4199 24.6275 20.1319 25.7779 20.1551V20.1574Z" fill="#2D2E83"/>
<path d="M38.969 17.6279C38.3648 17.6163 37.8907 17.9415 37.47 18.557C37.1121 19.0216 36.7891 19.6836 36.5195 20.5686H36.48C36.2151 18.7707 35.49 17.5582 34.5185 17.5373C33.2891 17.5117 32.5896 18.9983 32.1922 20.2503H32.1527L32.1295 17.8486L30.5329 17.816C30.5491 19.2213 30.5212 20.78 30.4771 22.6475L30.2075 34.0316L32.0225 34.0688L32.2503 24.4848C32.2503 24.4082 32.2526 24.3385 32.2666 24.2619C32.2759 23.867 32.3154 23.4907 32.3828 23.1492C32.578 22.0227 33.073 20.8311 33.7656 20.845C34.579 20.8613 34.9508 22.2735 34.9438 24.313C34.9508 24.45 34.9461 24.5871 34.9438 24.7334L34.7207 34.1199L36.5242 34.1571L36.7566 24.3594C36.7659 23.9227 36.817 23.4512 36.8751 23.0772C37.1005 21.9158 37.5909 20.924 38.2253 20.9356C39.0085 20.9518 39.4036 22.2271 39.4315 24.4128C39.4361 24.6776 39.4385 24.961 39.4315 25.2607L39.22 34.2105L41.0234 34.2477L41.2558 24.45C41.3349 19.4397 40.1682 17.6488 38.9667 17.6256L38.969 17.6279Z" fill="#2D2E83"/>
<path d="M50.4659 24.6358C50.3171 20.4339 49.0994 17.83 47.5818 17.7998C46.4616 17.7765 45.5855 18.7893 44.9952 20.6104H44.9649L44.9347 18.1064L43.3102 18.0739C43.3033 19.6069 43.2917 21.3374 43.2428 23.4721L42.7339 44.9628L44.5884 45L44.8836 32.5288H44.9138C45.0044 32.8749 45.1253 33.1838 45.2694 33.4626C45.3066 33.5415 45.3461 33.6089 45.3926 33.6879C45.525 33.9132 45.6807 34.106 45.8457 34.2616C46.1572 34.5589 46.5197 34.7285 46.9264 34.7378C47.3331 34.7471 47.7026 34.6077 48.0675 34.3057C48.2488 34.1547 48.4417 33.9782 48.616 33.7506C48.6671 33.6832 48.7182 33.6066 48.7693 33.5299C48.9948 33.2094 49.2132 32.8098 49.4015 32.343C49.8965 31.1606 50.2614 29.5416 50.4101 27.4534C50.4403 27.026 50.4612 26.58 50.4705 26.1085C50.4821 25.5952 50.4845 25.105 50.4659 24.6335V24.6358ZM46.5917 31.5671C45.8086 31.5509 45.1718 30.3384 45.0347 28.6659C44.9928 28.3059 44.9928 27.9366 45.0021 27.5347L45.0602 25.0423C45.0649 24.8797 45.0788 24.7009 45.0928 24.529C45.1067 24.3501 45.1299 24.1782 45.1555 24.0063C45.3856 22.2108 46.12 21.0006 46.8915 21.0169C47.8421 21.0355 48.3928 22.5383 48.5416 24.5987C48.5788 25.1143 48.595 25.6718 48.5811 26.2455C48.5718 26.6567 48.5532 27.0516 48.523 27.4186C48.3045 29.9597 47.612 31.5904 46.5894 31.5694L46.5917 31.5671Z" fill="#2D2E83"/>
<path d="M58.2862 24.7915C58.2141 21.5 57.4542 17.9972 55.3045 17.9531C53.3012 17.9136 52.0392 20.9635 51.6442 24.6591C51.5791 25.2909 51.5349 25.9413 51.5187 26.6009C51.5117 26.9006 51.514 27.1933 51.5187 27.4743C51.5419 29.472 51.8092 31.1467 52.3042 32.401C52.4808 32.8679 52.69 33.2744 52.9293 33.6135C52.9874 33.6925 53.0455 33.7692 53.092 33.8389C53.2849 34.0665 53.4778 34.2663 53.6939 34.4172C54.1123 34.7262 54.5864 34.8888 55.1 34.9004C55.753 34.9143 56.3433 34.7448 56.8453 34.48C57.1474 34.3243 57.4286 34.1315 57.6703 33.9318C57.6703 33.9318 57.6773 33.9263 57.6912 33.9155L57.6773 33.7088L57.5867 32.5079L57.4821 31.084C56.915 31.5346 56.2945 31.7878 55.4323 31.7715C55.0651 31.7646 54.7211 31.6368 54.4097 31.3651C54.3516 31.3116 54.2842 31.2605 54.2261 31.1908C53.9937 30.9377 53.7939 30.5985 53.6358 30.1595C53.4034 29.5045 53.2663 28.6357 53.271 27.5394L58.177 27.6369V27.6114C58.2258 27.2444 58.2699 26.6544 58.2885 25.9087C58.2978 25.5394 58.2955 25.1724 58.2862 24.7938V24.7915ZM55.1395 20.7428C56.3689 20.7683 56.6175 23.2398 56.5618 24.738L53.3407 24.673C53.4592 23.0052 53.9891 20.7172 55.1395 20.7405V20.7428Z" fill="#2D2E83"/>
<path d="M63.6407 18.1203C62.8575 18.1041 61.9674 19.2515 61.5561 21.5418H61.4956L61.5096 18.4385L59.8944 18.406C59.899 19.8717 59.8828 21.4396 59.8293 23.6417L59.569 34.6216L61.4236 34.6588L61.6211 26.2734C61.6327 25.8019 61.6723 25.3745 61.7118 25.0075C61.7118 24.9564 61.7234 24.9053 61.735 24.8611C61.9558 23.1097 62.5786 21.9297 63.4408 21.9483C63.6686 21.953 63.8359 22.0157 63.9823 22.0877L64.073 18.2248C63.9265 18.1621 63.8173 18.125 63.6384 18.1226L63.6407 18.1203Z" fill="#2D2E83"/>
<path d="M71.282 25.0516C71.2216 21.7602 70.4616 18.2574 68.3096 18.2132C66.3063 18.1738 65.0351 21.2236 64.64 24.9192C64.5749 25.551 64.5308 26.2014 64.5145 26.8611C64.5075 27.1607 64.5098 27.4604 64.5145 27.7438C64.5377 29.7321 64.8143 31.4092 65.3 32.6612C65.4766 33.1281 65.6951 33.5346 65.9252 33.8737C65.9833 33.9527 66.0414 34.0293 66.0971 34.099C66.2807 34.3243 66.4829 34.5264 66.6991 34.6774C67.1174 34.9863 67.5892 35.1489 68.1051 35.1605C68.7488 35.1745 69.3391 35.0049 69.8411 34.7401C70.1432 34.5845 70.4245 34.3917 70.6685 34.1919L70.6894 34.1757L70.6754 33.9689L70.5941 32.768L70.4895 31.3441C69.9225 31.7948 69.2927 32.048 68.4305 32.0317C67.2615 32.0085 66.2505 30.7286 66.2784 27.7972L71.1844 27.8948V27.8785C71.2239 27.5115 71.2681 26.9215 71.2843 26.1666C71.2936 25.7973 71.2913 25.4302 71.282 25.0516ZM68.1353 21.0029C69.374 21.0285 69.6134 23.5 69.5669 24.9982L66.3458 24.9332C66.455 23.2654 66.9942 20.9774 68.1353 21.0006V21.0029Z" fill="#2D2E83"/>
<path d="M80.4293 34.9515C80.355 34.761 80.2806 34.5706 80.2039 34.3824C80.176 34.3057 80.1481 34.2268 80.1202 34.1571C79.9622 33.7506 79.8112 33.3464 79.6531 32.9492C79.5788 32.7425 79.4951 32.5265 79.4091 32.3197C79.9018 31.1816 80.2341 29.7484 80.4828 28.0643C80.5758 27.4674 80.6501 26.8332 80.7152 26.1759L79.5067 26.1527C79.4416 26.8193 79.3673 27.4534 79.2627 28.0411C79.1209 28.9888 78.942 29.825 78.7282 30.4986C78.4656 29.825 78.1309 28.9354 77.7962 28.0109C77.6382 27.5789 77.4802 27.1398 77.3221 26.7171L77.3338 26.6242C77.7498 26.1782 78.0891 25.7043 78.3284 25.1956C78.7537 24.3641 78.9466 23.4257 78.9699 22.3641C79.0233 20.1296 78.2541 18.6732 77.2129 18.6523C75.8348 18.6244 75.0795 20.7776 75.0307 22.824C75.0121 23.6115 75.1027 24.4105 75.2631 25.1329C75.3444 25.486 75.435 25.8228 75.5466 26.1248V26.1921C75.1376 26.6544 74.7866 27.2304 74.5217 27.9459C74.2149 28.7635 74.022 29.7437 73.9942 30.9168C73.9779 31.5857 74.0221 32.2361 74.1475 32.84C74.2266 33.2791 74.3451 33.6925 74.5054 34.0479C74.5333 34.1246 74.5705 34.2035 74.5984 34.2732C74.703 34.4893 74.8262 34.6797 74.961 34.847C75.3165 35.3092 75.7767 35.5833 76.3414 35.5949C76.8969 35.6065 77.3872 35.3673 77.8265 34.905C77.9798 34.7448 78.1216 34.5589 78.2657 34.3476C78.3075 34.2802 78.3587 34.2035 78.4005 34.1269C78.4307 34.0851 78.4516 34.0502 78.4725 34.0084C78.4911 34.0526 78.5004 34.0851 78.519 34.1292C78.5469 34.2059 78.5841 34.2848 78.612 34.3545C78.6863 34.5613 78.7607 34.7424 78.8374 34.9236C78.9025 35.0792 78.9582 35.2349 79.0256 35.3812L80.6129 35.4137C80.5479 35.2581 80.4921 35.1118 80.4247 34.9561L80.4293 34.9515ZM77.0921 20.5639H77.1014C77.6173 20.5756 77.8218 21.5558 77.8009 22.4385C77.7753 23.5604 77.3988 24.306 76.7551 25.1608C76.7551 25.1701 76.7435 25.1864 76.7342 25.1956C76.7342 25.1864 76.7249 25.1701 76.7249 25.1608C76.4181 24.3316 76.2392 23.5325 76.2601 22.5546C76.2833 21.5279 76.5854 20.557 77.0897 20.5663L77.0921 20.5639ZM75.3003 30.4522C75.3281 29.2861 75.6442 28.5057 75.9649 27.9714C76.016 27.8785 76.0788 27.7926 76.1299 27.7182C76.1578 27.8042 76.195 27.8901 76.2229 27.9761C76.848 29.6671 77.4639 31.3 77.8753 32.3012C77.7707 32.5218 77.6475 32.7332 77.5034 32.9028C77.2478 33.214 76.9364 33.4045 76.6087 33.3998H76.5994C76.281 33.3929 76.0091 33.2001 75.7976 32.8702C75.4629 32.3406 75.2747 31.4626 75.3003 30.4522Z" fill="#2D2E83"/>
<path d="M92.6304 14.362L92.7141 10.7895L86.8552 10.6733L86.2928 34.4846L88.1474 34.5217L88.3868 24.4152L92.1238 24.4895L92.2074 20.9263L88.4704 20.8519L88.6261 14.283L92.6304 14.362Z" fill="#2D2E83"/>
<path d="M93.9435 18.4153L93.56 34.6286L95.4239 34.6658L95.8073 18.4525L93.9435 18.4153Z" fill="#2D2E83"/>
<path d="M98.0244 8.89175L97.4132 34.7076L99.2771 34.7447L99.8883 8.92892L98.0244 8.89175Z" fill="#2D2E83"/>
<path d="M106.119 28.5823C106.007 27.407 105.703 26.4918 105.164 25.7345C104.934 25.4047 104.643 25.1074 104.323 24.8356C103.409 24.0807 103.072 23.5766 103.098 22.5407C103.121 21.5465 103.495 20.852 104.16 20.8659C104.824 20.8799 105.387 21.4211 105.694 21.8299L106.119 18.9426C105.715 18.4386 105.013 17.9531 104.199 17.9368C102.494 17.902 101.371 20.118 101.304 22.9774C101.271 23.9274 101.408 24.8472 101.717 25.6672C102.036 26.4709 102.514 27.1817 103.214 27.7461C103.556 28.0179 103.807 28.2711 103.988 28.5405C104.276 28.9749 104.383 29.4487 104.367 30.134C104.341 31.1955 103.958 31.9179 103.144 31.9016C102.48 31.8877 101.701 31.2722 101.287 30.6984L100.86 33.6554C101.38 34.3336 102.17 34.847 103.063 34.8656C105.006 34.905 106.089 32.7657 106.156 29.8366C106.168 29.3907 106.156 28.9702 106.117 28.5847L106.119 28.5823Z" fill="#2D2E83"/>
</svg>
